HIERARCHY
ROOT Hips
{
	OFFSET 0.00 0.00 0.00
	CHANNELS 6 Xposition Yposition Zposition Xrotation Yrotation Zrotation
	JOINT LeftUpLeg
	{
		OFFSET 3.34807 0.00000 0.00000
		CHANNELS 3 Xrotation Yrotation Zrotation
		JOINT LeftLeg
		{
			OFFSET 0.00000 -16.98552 0.00000
			CHANNELS 3 Xrotation Yrotation Zrotation
			JOINT LeftFoot
			{
				OFFSET 0.00000 -16.83686 0.00000
				CHANNELS 3 Xrotation Yrotation Zrotation
				JOINT LeftToeBase
				{
					OFFSET 0.00000 -1.59599 5.95633
					CHANNELS 3 Xrotation Yrotation Zrotation
					End Site
					{
						OFFSET 0.00000 0.00000 2.95275
					}
				}
			}
		}
	}
	JOINT RightUpLeg
	{
		OFFSET -3.34807 0.00000 0.00000
		CHANNELS 3 Xrotation Yrotation Zrotation
		JOINT RightLeg
		{
			OFFSET 0.00000 -16.98552 0.00000
			CHANNELS 3 Xrotation Yrotation Zrotation
			JOINT RightFoot
			{
				OFFSET 0.00000 -16.83686 0.00000
				CHANNELS 3 Xrotation Yrotation Zrotation
				JOINT RightToeBase
				{
					OFFSET 0.00000 -1.59599 5.95633
					CHANNELS 3 Xrotation Yrotation Zrotation
					End Site
					{
						OFFSET 0.00000 0.00000 2.95275
					}
				}
			}
		}
	}
	JOINT Spine
	{
		OFFSET 0.00000 0.03937 0.00000
		CHANNELS 3 Xrotation Yrotation Zrotation
		JOINT Spine1
		{
			OFFSET 0.00000 7.93124 0.00000
			CHANNELS 3 Xrotation Yrotation Zrotation
			JOINT Neck
			{
				OFFSET 0.00000 8.48368 0.00000
				CHANNELS 3 Xrotation Yrotation Zrotation
				JOINT Head
				{
					OFFSET 0.00000 6.65077 0.00000
					CHANNELS 3 Xrotation Yrotation Zrotation
					End Site
					{
						OFFSET 0.00000 4.52755 0.00000
					}
				}
			}
			JOINT LeftShoulder
			{
				OFFSET 0.00000 8.48368 0.00000
				CHANNELS 3 Xrotation Yrotation Zrotation
				JOINT LeftArm
				{
					OFFSET 7.74502 -0.00003 0.00000
					CHANNELS 3 Xrotation Yrotation Zrotation
					JOINT LeftForeArm
					{
						OFFSET 12.49824 -0.00005 0.00000
						CHANNELS 3 Xrotation Yrotation Zrotation
						JOINT LeftHand
						{
							OFFSET 9.88337 -0.00004 0.00000
							CHANNELS 3 Xrotation Yrotation Zrotation
							JOINT LeftHandThumb
							{
								OFFSET 0.00000 0.00000 0.00000
								CHANNELS 3 Xrotation Yrotation Zrotation
								End Site
								{
									OFFSET 0.00000 0.00000 3.93700
								}
							}
							JOINT L_Wrist_End
							{
								OFFSET 3.93700 -0.00001 0.00000
								CHANNELS 3 Xrotation Yrotation Zrotation
							}
						}
					}
				}
			}
			JOINT RightShoulder
			{
				OFFSET 0.00000 8.48368 0.00000
				CHANNELS 3 Xrotation Yrotation Zrotation
				JOINT RightArm
				{
					OFFSET -7.74502 -0.00003 0.00000
					CHANNELS 3 Xrotation Yrotation Zrotation
					JOINT RightForeArm
					{
						OFFSET -12.49824 -0.00005 0.00000
						CHANNELS 3 Xrotation Yrotation Zrotation
						JOINT RightHand
						{
							OFFSET -9.88337 -0.00004 0.00000
							CHANNELS 3 Xrotation Yrotation Zrotation
							JOINT RightHandThumb
							{
								OFFSET 0.00000 0.00000 0.00000
								CHANNELS 3 Xrotation Yrotation Zrotation
								End Site
								{
									OFFSET 0.00000 0.00000 3.93700
								}
							}
							JOINT R_Wrist_End
							{
								OFFSET -5.39369 -0.00002 0.00000
								CHANNELS 3 Xrotation Yrotation Zrotation
							}
						}
					}
				}
			}
		}
	}
}
MOTION
Frames: 17
Frame Time: 0.066664
 -57.3147 32.9495 -3.9592 34.8668 -67.0787 25.2871 -40.6517 -0.7508 1.2224 45.6998 -0.0000 0.0000 -21.6337 7.1431 -5.1051 3.6444 0.0000 0.0000 -44.3147 -17.0369 -15.9345 62.9994 -0.0000 0.0000 3.4857 -0.7049 33.2797 -18.8281 0.0000 -0.0000 2.3803 -3.2357 -3.1576 26.2646 -8.9272 -5.8472 -12.0600 4.7937 3.7909 17.9336 -14.1723 -0.2786 -2.9232 18.3099 28.7854 46.3993 -62.5923 -49.1663 -0.0004 -59.7406 -0.0002 -5.1450 -32.2053 11.3410 -0.0000 0.0000 -0.0000 -0.0000 0.0000 -0.0000 21.0121 -17.6860 -14.0095 -20.3397 46.8567 83.0272 -0.0002 39.9470 0.0001 57.7516 -66.6298 -119.7764 -0.0000 0.0000 -0.0000 -0.0000 0.0000 -0.0000
 -55.9192 34.8051 -4.1248 31.5931 -58.6440 23.3184 -34.4613 3.6106 -1.0775 24.0057 -0.0000 0.0000 -8.2825 -2.9383 -17.0725 9.6179 -0.0000 0.0000 -42.2451 -22.5461 -19.0949 48.5894 -0.0000 0.0000 8.9871 -2.6328 36.0859 -14.5332 -0.0000 -0.0000 2.9632 -4.2650 -2.3559 23.6221 -8.6668 -3.8663 -13.3498 1.9337 4.0163 20.3193 -16.9254 0.4606 -4.3292 15.5627 30.1497 52.0327 -62.0534 -39.8152 -0.0005 -65.8271 -0.0003 -6.1832 -32.6888 10.6021 -0.0000 0.0000 -0.0000 -0.0000 0.0000 -0.0000 21.3335 -18.4632 -14.0756 -15.3450 47.6756 79.8201 -0.0002 42.5354 0.0001 57.8970 -65.8502 -117.6308 -0.0000 0.0000 -0.0000 -0.0000 0.0000 -0.0000
 -54.4658 35.7716 -4.3916 33.2303 -54.2126 23.2375 -35.0510 -0.7033 1.8198 33.6881 -0.0000 0.0000 -16.7750 4.0956 -21.5783 -1.8955 0.0000 -0.0000 -41.3955 -21.4837 -16.6288 39.9793 -0.0000 0.0000 15.5274 -6.4542 38.1407 -11.1489 -0.0000 -0.0000 1.1212 -4.4216 -0.6274 22.9800 -7.9627 -2.2988 -13.4126 1.1736 4.0425 21.6887 -19.2487 1.0233 -5.7437 14.6814 29.7687 47.7035 -59.7730 -38.7556 -0.0006 -70.8155 -0.0004 -6.9761 -37.9208 14.4348 -0.0000 0.0000 -0.0000 -0.0000 0.0000 -0.0000 21.4104 -19.1653 -13.1304 -11.5533 50.4796 75.7567 -0.0002 44.7853 0.0001 58.9769 -63.1268 -114.4913 -0.0000 0.0000 -0.0000 -0.0000 0.0000 -0.0000
 -52.6499 35.1835 -4.5826 35.1976 -57.4080 26.8631 -33.7649 -1.2178 6.2809 53.8839 -0.0000 0.0000 -17.7487 6.7326 -12.7576 0.7461 0.0000 -0.0000 -46.1871 -19.3634 -18.2529 42.2849 -0.0000 0.0000 14.4953 -6.1135 35.4827 -9.6099 0.0000 -0.0000 2.1667 -3.7423 -1.2288 22.4920 -8.2723 -4.3345 -9.9086 2.4790 3.0804 20.5791 -18.4614 0.7222 -7.2174 16.8437 28.0332 36.7990 -55.5888 -46.3941 -0.0006 -71.5944 -0.0005 -10.9679 -38.8262 23.6346 -0.0000 0.0000 -0.0000 -0.0000 0.0000 -0.0000 20.3859 -18.1592 -13.8227 -14.7190 48.8892 78.9678 -0.0002 42.8309 0.0001 58.5914 -65.0975 -116.7337 -0.0000 0.0000 -0.0000 -0.0000 0.0000 -0.0000
 -50.3293 33.8521 -4.9108 41.6265 -55.0852 31.9896 -34.7063 -3.6039 8.3985 47.0335 -0.0000 0.0000 -22.3131 0.9569 -22.3276 -6.0578 0.0000 0.0000 -56.4864 -19.4176 -20.7858 46.2031 -0.0000 0.0000 9.8709 -6.3661 34.2835 -6.5581 0.0000 0.0000 1.6213 -3.6955 0.1323 23.7175 -8.6988 -5.2254 -9.7206 2.0543 2.2873 17.9949 -17.8992 0.3449 -7.4310 17.9053 26.1430 18.3621 -49.0944 -60.0157 -0.0006 -69.9894 -0.0004 -15.6418 -40.0948 38.7768 -0.0000 -0.0000 0.0000 -0.0000 -0.0000 0.0000 21.2399 -18.4076 -12.6924 -16.8087 46.3715 81.4684 -0.0002 45.1482 0.0001 49.3511 -68.1067 -121.7386 -0.0000 0.0000 -0.0000 -0.0000 0.0000 -0.0000
 -47.9704 32.4185 -5.0138 45.3748 -54.7573 35.4113 -41.8742 -2.1382 5.9707 51.8684 -0.0000 0.0000 -33.3419 5.3177 -15.8654 2.7553 -0.0000 0.0000 -64.8486 -16.6624 -22.5425 50.5971 -0.0000 0.0000 8.3644 -6.8102 34.0470 -4.4378 0.0000 0.0000 1.9354 -3.3257 0.3062 25.6771 -8.9192 -6.2342 -9.1925 2.7694 3.1725 15.0750 -17.5411 0.7304 -8.0047 17.2543 25.8281 7.3069 -43.3429 -69.7040 -0.0005 -68.3817 -0.0004 9.4150 -35.2753 26.4112 -0.0000 0.0000 -0.0000 -0.0000 0.0000 -0.0000 20.9831 -17.3287 -12.7124 -20.9473 47.7346 84.7486 -0.0002 43.4845 0.0001 50.7889 -67.4190 -120.7464 -0.0000 0.0000 -0.0000 -0.0000 0.0000 -0.0000
 -46.3475 31.7846 -4.8986 47.2905 -57.0557 35.6589 -46.3151 -4.7100 5.3391 58.1091 -0.0000 0.0000 -35.2983 7.9704 -12.7329 2.6643 0.0000 0.0000 -67.3145 -16.1509 -21.4631 50.7854 -0.0000 0.0000 12.5976 -5.5473 34.4062 -4.7924 -0.0000 -0.0000 1.0688 -2.9524 0.3076 28.6259 -8.1952 -5.6179 -9.0982 3.2756 3.5342 16.4169 -17.0719 0.9392 -8.0333 16.5054 25.5045 2.7155 -39.2736 -74.3687 -0.0005 -65.6731 -0.0003 11.3630 -34.9341 27.4088 -0.0000 0.0000 -0.0000 -0.0000 0.0000 -0.0000 20.3748 -16.5298 -12.3770 -25.6912 45.6000 88.8160 -0.0002 42.4947 0.0001 50.4774 -70.7641 -123.4632 -0.0000 0.0000 -0.0000 -0.0000 0.0000 -0.0000
 -45.2291 31.8051 -4.6897 48.6934 -59.3700 35.3740 -47.5478 -4.2165 6.6378 59.2291 -0.0000 0.0000 -34.8565 7.8169 -11.0299 3.1317 0.0000 -0.0000 -63.9690 -15.7580 -18.0975 44.5535 -0.0000 0.0000 15.7743 -5.7882 36.3442 -3.6088 0.0000 0.0000 0.8434 -2.9435 0.7683 28.0678 -7.7572 -5.0993 -8.6595 3.9047 4.1324 17.0905 -16.9382 1.0536 -7.2375 16.5113 25.4960 3.0513 -36.9915 -74.9086 -0.0004 -64.1395 -0.0003 10.3588 -34.4002 26.3512 -0.0000 0.0000 -0.0000 -0.0000 0.0000 -0.0000 20.7582 -16.8452 -11.2422 -25.6207 41.2832 90.9080 -0.0002 45.0592 0.0001 42.2097 -74.4335 -132.4386 -0.0000 0.0000 -0.0000 -0.0000 0.0000 -0.0000
 -44.3591 32.1975 -4.3211 49.9358 -61.8573 35.6575 -46.6894 -1.7432 8.4296 57.1261 -0.0000 0.0000 -33.1181 6.4224 -10.5343 3.7456 0.0000 0.0000 -59.4151 -14.6273 -14.7227 36.7700 -0.0000 0.0000 21.4998 -6.5832 38.7784 -4.2011 0.0000 0.0000 0.4467 -3.0468 1.2736 27.3749 -7.4840 -4.6026 -9.0160 4.3910 4.3123 17.4500 -16.3742 0.9992 -6.9468 17.0459 25.0805 4.6058 -35.7237 -73.5871 -0.0004 -63.1800 -0.0003 8.5745 -33.9540 25.5437 -0.0000 0.0000 -0.0000 -0.0000 0.0000 -0.0000 21.2617 -17.5032 -10.0722 -24.9338 41.1737 91.5506 -0.0002 44.2827 0.0001 36.8123 -75.3944 -134.6355 -0.0000 0.0000 -0.0000 -0.0000 0.0000 -0.0000
 -43.7525 32.6340 -3.8667 46.2813 -64.3023 33.6131 -42.9606 2.1683 8.1986 53.3484 -0.0000 0.0000 -31.0322 4.8259 -11.6121 4.4725 -0.0000 0.0000 -56.9225 -14.2605 -15.3247 37.1767 0.0000 0.0000 18.5539 -6.9325 41.2885 -6.1046 -0.0000 -0.0000 0.5876 -3.5469 0.4629 27.9549 -7.8969 -4.3458 -8.9104 4.9106 4.3455 17.3441 -16.2038 0.4051 -6.8575 17.2947 25.1489 5.7897 -34.2663 -72.5096 -0.0004 -62.2879 -0.0002 7.9410 -34.2016 26.0966 -0.0000 0.0000 -0.0000 -0.0000 0.0000 -0.0000 21.6482 -18.0112 -9.4660 -24.3541 42.0803 91.7974 -0.0002 42.8846 0.0001 40.9615 -74.1147 -129.2258 -0.0000 0.0000 -0.0000 -0.0000 0.0000 -0.0000
 -43.2323 33.0814 -3.6343 43.6470 -66.1304 31.5707 -40.0197 4.1994 8.2590 49.7784 0.0000 0.0000 -28.9646 4.1687 -12.8293 5.5952 0.0000 0.0000 -56.6701 -14.5593 -15.6149 46.4887 -0.0000 0.0000 14.1533 -6.3714 37.7480 -5.5432 -0.0000 0.0000 0.3678 -3.8344 -0.0055 28.6204 -8.0686 -4.0999 -8.8112 5.3870 4.3945 17.2907 -15.8138 -0.0114 -6.8382 17.6821 25.2308 7.1641 -32.9748 -70.7319 -0.0004 -61.9804 -0.0002 -6.9850 -42.3697 45.0857 -0.0000 -0.0000 0.0000 -0.0000 -0.0000 0.0000 21.8715 -18.3260 -9.3432 -23.8654 42.9380 91.8826 -0.0002 42.8424 0.0001 42.3970 -73.7739 -126.3730 -0.0000 0.0000 -0.0000 -0.0000 0.0000 -0.0000
 -42.8223 33.4256 -3.5213 40.8113 -67.9858 29.4230 -36.9618 5.7199 8.1301 46.4373 -0.0000 0.0000 -27.4333 3.9457 -13.3663 6.4723 -0.0000 0.0000 -55.4616 -14.3797 -15.7135 56.5667 -0.0000 0.0000 12.5013 -7.6734 36.6334 -5.2411 -0.0000 -0.0000 0.4436 -3.9666 -0.6916 28.9171 -8.3178 -4.2267 -8.4756 5.7935 4.3199 17.5899 -15.2100 -0.1004 -6.3209 18.3962 24.9887 8.7892 -32.1955 -68.7013 -0.0004 -61.3917 -0.0002 -9.7684 -43.2176 46.3748 -0.0000 -0.0000 0.0000 -0.0000 -0.0000 0.0000 21.9640 -18.4673 -9.4338 -23.9038 43.2252 91.7646 -0.0002 42.4710 0.0001 43.9659 -73.0510 -125.2940 -0.0000 0.0000 -0.0000 -0.0000 0.0000 -0.0000
 -42.4226 33.6563 -3.5117 38.9626 -69.0259 27.9995 -35.1941 6.2176 7.6672 43.8891 -0.0000 0.0000 -25.8150 4.0613 -12.2960 6.2637 0.0000 0.0000 -53.3416 -14.1592 -15.4672 63.1880 -0.0000 0.0000 11.9614 -6.0872 35.4561 -6.1594 -0.0000 0.0000 0.3611 -4.0613 -1.1393 28.9712 -8.6318 -4.5100 -8.3012 6.1675 4.4539 17.5464 -14.9683 -0.2815 -6.6135 18.6444 25.4048 10.9977 -32.0956 -67.9417 -0.0004 -60.1388 -0.0002 -9.6611 -43.6267 46.6343 -0.0000 -0.0000 0.0000 -0.0000 -0.0000 0.0000 21.8753 -18.4643 -9.6356 -23.8487 43.0598 91.5242 -0.0002 42.3280 0.0001 44.1452 -72.7395 -125.3427 -0.0000 0.0000 -0.0000 -0.0000 0.0000 -0.0000
 -41.8928 33.7596 -3.5185 39.0802 -69.6160 28.4876 -34.7416 4.9198 6.4045 42.3214 -0.0000 0.0000 -24.6091 5.4058 -10.1953 6.2738 0.0000 0.0000 -51.2671 -13.6595 -14.7822 66.5425 -0.0000 0.0000 11.7849 -4.6169 34.8500 -8.2053 0.0000 -0.0000 0.4103 -3.9704 -1.4619 28.7419 -8.5750 -4.5947 -8.2365 6.3001 4.5173 17.0131 -15.1038 -0.6313 -6.4498 18.9240 25.3185 11.9242 -32.1081 -68.6065 -0.0003 -58.3197 -0.0002 3.5622 -36.2892 28.0554 -0.0000 0.0000 -0.0000 -0.0000 0.0000 -0.0000 21.8508 -18.4613 -9.7484 -23.8922 42.4072 90.9231 -0.0002 42.5010 0.0001 43.7958 -72.3224 -125.6423 -0.0000 0.0000 -0.0000 -0.0000 0.0000 -0.0000
 -41.2693 33.7008 -3.5596 39.9687 -70.2645 29.7080 -35.7427 3.7136 5.5372 42.7927 0.0000 0.0000 -23.4750 6.3005 -9.2359 5.6619 -0.0000 0.0000 -49.4080 -13.8806 -14.1065 66.9191 -0.0000 0.0000 13.3438 -3.9926 35.2903 -8.8900 -0.0000 -0.0000 0.5314 -3.7311 -1.6900 28.5885 -8.3591 -4.6951 -8.3421 6.1963 4.4127 17.1208 -14.9548 -0.6137 -6.3278 19.0264 25.3234 12.5183 -33.1196 -70.3395 -0.0003 -56.0307 -0.0002 3.7753 -35.6393 25.5603 -0.0000 0.0000 -0.0000 -0.0000 0.0000 -0.0000 21.3726 -18.1964 -10.1142 -24.3419 41.9414 90.6858 -0.0002 41.9976 0.0001 42.8088 -72.3887 -126.1696 -0.0000 0.0000 -0.0000 -0.0000 0.0000 -0.0000
 -40.5855 33.3537 -3.6147 40.1135 -71.4812 30.6788 -37.6988 2.8291 4.7912 45.9207 -0.0000 0.0000 -23.0562 6.6900 -9.5876 5.7991 0.0000 0.0000 -47.7475 -13.9271 -13.8834 65.7569 -0.0000 0.0000 11.3800 -2.6075 33.3550 -17.2639 0.0000 0.0000 0.6833 -3.3120 -2.0818 28.4816 -8.1422 -5.0866 -8.3749 6.2377 4.4045 17.0120 -15.1402 -1.0280 -6.0695 18.9575 25.3460 13.6905 -36.1746 -71.6825 -0.0003 -53.5319 -0.0001 2.1276 -36.5494 24.9512 -0.0000 -0.0000 0.0000 -0.0000 -0.0000 0.0000 20.8153 -17.7802 -10.3390 -25.2005 42.1228 89.7312 -0.0002 41.7431 0.0001 44.9816 -71.5616 -124.7859 -0.0000 0.0000 -0.0000 -0.0000 0.0000 -0.0000
 -39.8141 32.8912 -3.6380 37.4589 -72.4643 29.4362 -39.2057 2.4653 3.2408 48.8392 -0.0000 0.0000 -22.7350 6.9754 -8.4211 5.3150 -0.0000 0.0000 -46.4359 -13.8778 -14.9978 64.1489 -0.0000 0.0000 6.2081 -2.0471 32.0312 -19.1091 0.0000 0.0000 0.7772 -3.0247 -2.3238 28.3911 -8.1120 -5.5316 -8.8286 5.6541 4.0183 17.2391 -15.0495 -1.0892 -5.4377 18.4299 25.5599 15.6969 -41.6122 -71.8130 -0.0003 -51.9520 -0.0001 0.3066 -36.9084 25.9995 -0.0000 -0.0000 0.0000 -0.0000 -0.0000 0.0000 20.2487 -16.8060 -11.4176 -26.1109 42.3621 87.8304 -0.0002 41.8788 0.0001 44.1400 -71.4676 -125.4954 -0.0000 0.0000 -0.0000 -0.0000 0.0000 -0.0000
